<mxfile host="app.diagrams.net" modified="2020-11-10T03:27:53.773Z" agent="5.0 (Windows NT 10.0; Win64; x64) AppleWebKit/537.36 (KHTML, like Gecko) Chrome/85.0.4183.83 Safari/537.36" etag="t5VSrQJU444tYsNYYB2M" version="13.9.2" type="github">
  <diagram id="op7b8pMgfz6yNr0-QGYo" name="第 1 页">
    <mxGraphModel dx="1422" dy="762" grid="1" gridSize="10" guides="1" tooltips="1" connect="1" arrows="1" fold="1" page="1" pageScale="1" pageWidth="827" pageHeight="1169" math="0" shadow="0">
      <root>
        <mxCell id="0" />
        <mxCell id="1" parent="0" />
        <mxCell id="DsWuDI-PCPcOqOPiFzHt-30" value="" style="shape=note;whiteSpace=wrap;html=1;backgroundOutline=1;darkOpacity=0.05;labelBackgroundColor=#ffffff;" vertex="1" parent="1">
          <mxGeometry x="950" y="20" width="380" height="190" as="geometry" />
        </mxCell>
        <mxCell id="DsWuDI-PCPcOqOPiFzHt-14" value="Java动态代理" style="edgeStyle=orthogonalEdgeStyle;rounded=0;orthogonalLoop=1;jettySize=auto;html=1;" edge="1" parent="1" source="DsWuDI-PCPcOqOPiFzHt-10" target="DsWuDI-PCPcOqOPiFzHt-11">
          <mxGeometry relative="1" as="geometry" />
        </mxCell>
        <mxCell id="DsWuDI-PCPcOqOPiFzHt-10" value="&lt;pre style=&quot;background-color: #2b2b2b ; color: #a9b7c6 ; font-family: &amp;#34;consolas&amp;#34; , monospace ; font-size: 12.0pt&quot;&gt;&lt;span style=&quot;color: #ffc66d&quot;&gt;create&lt;/span&gt;&lt;/pre&gt;" style="rounded=0;whiteSpace=wrap;html=1;" vertex="1" parent="1">
          <mxGeometry x="120" y="80" width="160" height="60" as="geometry" />
        </mxCell>
        <mxCell id="DsWuDI-PCPcOqOPiFzHt-15" style="edgeStyle=orthogonalEdgeStyle;rounded=0;orthogonalLoop=1;jettySize=auto;html=1;entryX=0.5;entryY=0;entryDx=0;entryDy=0;" edge="1" parent="1" source="DsWuDI-PCPcOqOPiFzHt-11" target="DsWuDI-PCPcOqOPiFzHt-12">
          <mxGeometry relative="1" as="geometry" />
        </mxCell>
        <mxCell id="DsWuDI-PCPcOqOPiFzHt-18" style="edgeStyle=orthogonalEdgeStyle;rounded=0;orthogonalLoop=1;jettySize=auto;html=1;" edge="1" parent="1" source="DsWuDI-PCPcOqOPiFzHt-11" target="DsWuDI-PCPcOqOPiFzHt-17">
          <mxGeometry relative="1" as="geometry" />
        </mxCell>
        <mxCell id="DsWuDI-PCPcOqOPiFzHt-19" value="&lt;pre style=&quot;color: rgb(169 , 183 , 198) ; font-family: &amp;#34;consolas&amp;#34; , monospace&quot;&gt;&lt;font style=&quot;font-size: 11px&quot;&gt;创建ServcieMethod&lt;/font&gt;&lt;/pre&gt;" style="edgeLabel;html=1;align=center;verticalAlign=middle;resizable=0;points=[];labelBackgroundColor=none;" vertex="1" connectable="0" parent="DsWuDI-PCPcOqOPiFzHt-18">
          <mxGeometry x="-0.2462" y="-1" relative="1" as="geometry">
            <mxPoint x="15" y="-11" as="offset" />
          </mxGeometry>
        </mxCell>
        <mxCell id="DsWuDI-PCPcOqOPiFzHt-11" value="&lt;pre style=&quot;background-color: #2b2b2b ; color: #a9b7c6 ; font-family: &amp;#34;consolas&amp;#34; , monospace ; font-size: 12.0pt&quot;&gt;&lt;pre style=&quot;font-family: &amp;#34;consolas&amp;#34; , monospace ; font-size: 12pt&quot;&gt;loadServiceMethod&lt;/pre&gt;&lt;/pre&gt;" style="rounded=0;whiteSpace=wrap;html=1;" vertex="1" parent="1">
          <mxGeometry x="120" y="240" width="160" height="60" as="geometry" />
        </mxCell>
        <mxCell id="DsWuDI-PCPcOqOPiFzHt-35" style="edgeStyle=orthogonalEdgeStyle;rounded=0;orthogonalLoop=1;jettySize=auto;html=1;" edge="1" parent="1" source="DsWuDI-PCPcOqOPiFzHt-12" target="DsWuDI-PCPcOqOPiFzHt-34">
          <mxGeometry relative="1" as="geometry" />
        </mxCell>
        <mxCell id="DsWuDI-PCPcOqOPiFzHt-12" value="&lt;pre style=&quot;background-color: #2b2b2b ; color: #a9b7c6 ; font-family: &amp;#34;consolas&amp;#34; , monospace ; font-size: 12.0pt&quot;&gt;&lt;pre style=&quot;font-family: &amp;#34;consolas&amp;#34; , monospace ; font-size: 12pt&quot;&gt;invoke&lt;/pre&gt;&lt;/pre&gt;" style="rounded=0;whiteSpace=wrap;html=1;" vertex="1" parent="1">
          <mxGeometry x="120" y="400" width="160" height="60" as="geometry" />
        </mxCell>
        <mxCell id="DsWuDI-PCPcOqOPiFzHt-21" style="edgeStyle=orthogonalEdgeStyle;rounded=0;orthogonalLoop=1;jettySize=auto;html=1;entryX=0.476;entryY=1.022;entryDx=0;entryDy=0;entryPerimeter=0;" edge="1" parent="1" source="DsWuDI-PCPcOqOPiFzHt-17" target="DsWuDI-PCPcOqOPiFzHt-20">
          <mxGeometry relative="1" as="geometry" />
        </mxCell>
        <mxCell id="DsWuDI-PCPcOqOPiFzHt-28" style="edgeStyle=orthogonalEdgeStyle;rounded=0;orthogonalLoop=1;jettySize=auto;html=1;entryX=0;entryY=0.5;entryDx=0;entryDy=0;" edge="1" parent="1" source="DsWuDI-PCPcOqOPiFzHt-17" target="DsWuDI-PCPcOqOPiFzHt-22">
          <mxGeometry relative="1" as="geometry">
            <mxPoint x="950" y="270" as="targetPoint" />
          </mxGeometry>
        </mxCell>
        <mxCell id="DsWuDI-PCPcOqOPiFzHt-17" value="&lt;pre style=&quot;font-family: &amp;#34;consolas&amp;#34; , monospace&quot;&gt;&lt;pre style=&quot;color: rgb(169 , 183 , 198) ; font-family: &amp;#34;consolas&amp;#34; , monospace&quot;&gt;&lt;font style=&quot;font-size: 11px&quot;&gt;loadServiceMethod&lt;/font&gt;&lt;/pre&gt;&lt;/pre&gt;" style="rounded=0;whiteSpace=wrap;html=1;" vertex="1" parent="1">
          <mxGeometry x="480" y="240" width="360" height="60" as="geometry" />
        </mxCell>
        <mxCell id="DsWuDI-PCPcOqOPiFzHt-20" value="&lt;pre style=&quot;font-family: &amp;#34;consolas&amp;#34; , monospace&quot;&gt;&lt;span style=&quot;background-color: rgb(255 , 255 , 255)&quot;&gt;&lt;font style=&quot;font-size: 12px&quot;&gt;优先从serviceMethodCache获取，&lt;/font&gt;&lt;/span&gt;&lt;/pre&gt;&lt;pre style=&quot;font-family: &amp;#34;consolas&amp;#34; , monospace&quot;&gt;&lt;span style=&quot;background-color: rgb(255 , 255 , 255)&quot;&gt;&lt;font style=&quot;font-size: 12px&quot;&gt;没有在创建，创建后保存&lt;/font&gt;&lt;/span&gt;&lt;/pre&gt;" style="shape=note;whiteSpace=wrap;html=1;backgroundOutline=1;darkOpacity=0.05;labelBackgroundColor=none;" vertex="1" parent="1">
          <mxGeometry x="480" y="60" width="250" height="90" as="geometry" />
        </mxCell>
        <mxCell id="DsWuDI-PCPcOqOPiFzHt-27" style="edgeStyle=orthogonalEdgeStyle;rounded=0;orthogonalLoop=1;jettySize=auto;html=1;entryX=0.5;entryY=0;entryDx=0;entryDy=0;" edge="1" parent="1" source="DsWuDI-PCPcOqOPiFzHt-22" target="DsWuDI-PCPcOqOPiFzHt-26">
          <mxGeometry relative="1" as="geometry" />
        </mxCell>
        <mxCell id="DsWuDI-PCPcOqOPiFzHt-32" style="edgeStyle=orthogonalEdgeStyle;rounded=0;orthogonalLoop=1;jettySize=auto;html=1;entryX=0.5;entryY=1;entryDx=0;entryDy=0;entryPerimeter=0;" edge="1" parent="1" source="DsWuDI-PCPcOqOPiFzHt-22" target="DsWuDI-PCPcOqOPiFzHt-30">
          <mxGeometry relative="1" as="geometry" />
        </mxCell>
        <mxCell id="DsWuDI-PCPcOqOPiFzHt-22" value="&lt;pre style=&quot;font-family: &amp;#34;consolas&amp;#34; , monospace ; font-size: 11px&quot;&gt;&lt;span style=&quot;background-color: rgb(255 , 255 , 255) ; font-size: 11px&quot;&gt;ServiceMethod.&lt;span style=&quot;font-style: italic ; font-size: 11px&quot;&gt;parseAnnotations&lt;/span&gt;(this, method)&lt;/span&gt;&lt;/pre&gt;" style="rounded=0;whiteSpace=wrap;html=1;" vertex="1" parent="1">
          <mxGeometry x="960" y="240" width="360" height="60" as="geometry" />
        </mxCell>
        <mxCell id="DsWuDI-PCPcOqOPiFzHt-24" value="&lt;pre style=&quot;font-family: &amp;#34;consolas&amp;#34; , monospace ; font-size: 12pt&quot;&gt;&lt;span style=&quot;font-style: italic&quot;&gt;解析方法注解，获得RequestFactory&lt;/span&gt;&lt;/pre&gt;&lt;pre style=&quot;font-family: &amp;#34;consolas&amp;#34; , monospace ; font-size: 12pt&quot;&gt;&lt;span style=&quot;font-style: italic&quot;&gt;parseAnnotations&lt;/span&gt;(retrofit, method)&lt;/pre&gt;" style="text;html=1;align=center;verticalAlign=middle;resizable=0;points=[];autosize=1;labelBackgroundColor=#ffffff;" vertex="1" parent="1">
          <mxGeometry x="960" y="30" width="310" height="80" as="geometry" />
        </mxCell>
        <mxCell id="DsWuDI-PCPcOqOPiFzHt-25" value="&lt;pre style=&quot;font-family: &amp;#34;consolas&amp;#34; , monospace ; font-size: 12pt&quot;&gt;获取返回类型Type &lt;/pre&gt;&lt;pre style=&quot;font-family: &amp;#34;consolas&amp;#34; , monospace ; font-size: 12pt&quot;&gt;getGenericReturnType&lt;/pre&gt;" style="text;html=1;align=center;verticalAlign=middle;resizable=0;points=[];autosize=1;labelBackgroundColor=#ffffff;" vertex="1" parent="1">
          <mxGeometry x="960" y="110" width="190" height="80" as="geometry" />
        </mxCell>
        <mxCell id="DsWuDI-PCPcOqOPiFzHt-44" style="edgeStyle=orthogonalEdgeStyle;rounded=0;orthogonalLoop=1;jettySize=auto;html=1;entryX=0.5;entryY=0;entryDx=0;entryDy=0;" edge="1" parent="1" source="DsWuDI-PCPcOqOPiFzHt-26" target="DsWuDI-PCPcOqOPiFzHt-43">
          <mxGeometry relative="1" as="geometry" />
        </mxCell>
        <mxCell id="DsWuDI-PCPcOqOPiFzHt-26" value="&lt;pre style=&quot;font-family: &amp;#34;consolas&amp;#34; , monospace ; font-size: 11px&quot;&gt;&lt;pre style=&quot;font-family: &amp;#34;consolas&amp;#34; , monospace ; font-size: 12pt&quot;&gt;&lt;span style=&quot;background-color: rgb(255 , 255 , 255)&quot;&gt;HttpServiceMethod.&lt;span style=&quot;font-style: italic&quot;&gt;parseAnnotations&lt;/span&gt;(retrofit, method, requestFactory)&lt;/span&gt;&lt;/pre&gt;&lt;/pre&gt;" style="rounded=0;whiteSpace=wrap;html=1;" vertex="1" parent="1">
          <mxGeometry x="960" y="420" width="360" height="60" as="geometry" />
        </mxCell>
        <mxCell id="DsWuDI-PCPcOqOPiFzHt-48" style="edgeStyle=orthogonalEdgeStyle;rounded=0;orthogonalLoop=1;jettySize=auto;html=1;entryX=1;entryY=0.5;entryDx=0;entryDy=0;" edge="1" parent="1" source="DsWuDI-PCPcOqOPiFzHt-33" target="DsWuDI-PCPcOqOPiFzHt-37">
          <mxGeometry relative="1" as="geometry">
            <Array as="points">
              <mxPoint x="1619" y="560" />
              <mxPoint x="790" y="560" />
              <mxPoint x="790" y="620" />
            </Array>
          </mxGeometry>
        </mxCell>
        <mxCell id="DsWuDI-PCPcOqOPiFzHt-33" value="&lt;span style=&quot;background-color: rgb(255 , 255 , 255)&quot;&gt;检测是否Kotlin suspend函数&lt;br&gt;1、不是的话创建&lt;span style=&quot;font-family: &amp;#34;consolas&amp;#34; , monospace ; font-size: 12pt&quot;&gt;CallAdapted&lt;br&gt;是的话创建&lt;/span&gt;&lt;span style=&quot;font-family: &amp;#34;consolas&amp;#34; , monospace ; font-size: 12pt&quot;&gt;SuspendForResponse或&lt;/span&gt;&lt;span style=&quot;font-family: &amp;#34;consolas&amp;#34; , monospace ; font-size: 12pt&quot;&gt;SuspendForBody&lt;/span&gt;&lt;/span&gt;" style="shape=note;whiteSpace=wrap;html=1;backgroundOutline=1;darkOpacity=0.05;labelBackgroundColor=#ffffff;" vertex="1" parent="1">
          <mxGeometry x="1470" y="380" width="297" height="140" as="geometry" />
        </mxCell>
        <mxCell id="DsWuDI-PCPcOqOPiFzHt-38" style="edgeStyle=orthogonalEdgeStyle;rounded=0;orthogonalLoop=1;jettySize=auto;html=1;entryX=0.5;entryY=0;entryDx=0;entryDy=0;" edge="1" parent="1" source="DsWuDI-PCPcOqOPiFzHt-34" target="DsWuDI-PCPcOqOPiFzHt-37">
          <mxGeometry relative="1" as="geometry" />
        </mxCell>
        <mxCell id="DsWuDI-PCPcOqOPiFzHt-34" value="&lt;pre style=&quot;font-family: &amp;#34;consolas&amp;#34; , monospace ; font-size: 12pt&quot;&gt;&lt;pre style=&quot;font-family: &amp;#34;consolas&amp;#34; , monospace ; font-size: 12pt&quot;&gt;&lt;pre style=&quot;font-family: &amp;#34;consolas&amp;#34; , monospace ; font-size: 12pt&quot;&gt;&lt;span style=&quot;background-color: rgb(255 , 255 , 255)&quot;&gt;HttpServiceMethod.&lt;/span&gt;invoke&lt;/pre&gt;&lt;/pre&gt;&lt;/pre&gt;" style="rounded=0;whiteSpace=wrap;html=1;" vertex="1" parent="1">
          <mxGeometry x="390" y="400" width="230" height="60" as="geometry" />
        </mxCell>
        <mxCell id="DsWuDI-PCPcOqOPiFzHt-36" value="创建OkHttpCall" style="shape=note;whiteSpace=wrap;html=1;backgroundOutline=1;darkOpacity=0.05;labelBackgroundColor=#ffffff;" vertex="1" parent="1">
          <mxGeometry x="680" y="380" width="80" height="100" as="geometry" />
        </mxCell>
        <mxCell id="DsWuDI-PCPcOqOPiFzHt-40" style="edgeStyle=orthogonalEdgeStyle;rounded=0;orthogonalLoop=1;jettySize=auto;html=1;entryX=0.5;entryY=0;entryDx=0;entryDy=0;" edge="1" parent="1" source="DsWuDI-PCPcOqOPiFzHt-37" target="DsWuDI-PCPcOqOPiFzHt-39">
          <mxGeometry relative="1" as="geometry" />
        </mxCell>
        <mxCell id="DsWuDI-PCPcOqOPiFzHt-37" value="&lt;pre style=&quot;font-family: &amp;#34;consolas&amp;#34; , monospace ; font-size: 12pt&quot;&gt;&lt;pre style=&quot;font-family: &amp;#34;consolas&amp;#34; , monospace ; font-size: 12pt&quot;&gt;&lt;pre style=&quot;font-family: &amp;#34;consolas&amp;#34; , monospace ; font-size: 12pt&quot;&gt;&lt;pre style=&quot;font-family: &amp;#34;consolas&amp;#34; , monospace ; font-size: 12pt&quot;&gt;&lt;span style=&quot;background-color: rgb(255 , 255 , 255)&quot;&gt;CallAdapted.adapt&lt;/span&gt;&lt;/pre&gt;&lt;/pre&gt;&lt;/pre&gt;&lt;/pre&gt;" style="rounded=0;whiteSpace=wrap;html=1;" vertex="1" parent="1">
          <mxGeometry x="391" y="590" width="230" height="60" as="geometry" />
        </mxCell>
        <mxCell id="DsWuDI-PCPcOqOPiFzHt-42" style="edgeStyle=orthogonalEdgeStyle;rounded=0;orthogonalLoop=1;jettySize=auto;html=1;entryX=0.5;entryY=0;entryDx=0;entryDy=0;" edge="1" parent="1" source="DsWuDI-PCPcOqOPiFzHt-39" target="DsWuDI-PCPcOqOPiFzHt-41">
          <mxGeometry relative="1" as="geometry" />
        </mxCell>
        <mxCell id="DsWuDI-PCPcOqOPiFzHt-39" value="&lt;pre style=&quot;font-family: &amp;#34;consolas&amp;#34; , monospace ; font-size: 12pt&quot;&gt;&lt;pre style=&quot;font-family: &amp;#34;consolas&amp;#34; , monospace ; font-size: 12pt&quot;&gt;&lt;pre style=&quot;font-family: &amp;#34;consolas&amp;#34; , monospace ; font-size: 12pt&quot;&gt;&lt;pre style=&quot;font-family: &amp;#34;consolas&amp;#34; , monospace ; font-size: 12pt&quot;&gt;&lt;pre style=&quot;background-color: #2b2b2b ; color: #a9b7c6 ; font-family: &amp;#34;consolas&amp;#34; , monospace ; font-size: 12.0pt&quot;&gt;&lt;span style=&quot;color: #9876aa&quot;&gt;callAdapter&lt;/span&gt;.adapt(call)&lt;/pre&gt;&lt;/pre&gt;&lt;/pre&gt;&lt;/pre&gt;&lt;/pre&gt;" style="rounded=0;whiteSpace=wrap;html=1;" vertex="1" parent="1">
          <mxGeometry x="391" y="760" width="230" height="60" as="geometry" />
        </mxCell>
        <mxCell id="DsWuDI-PCPcOqOPiFzHt-59" style="edgeStyle=orthogonalEdgeStyle;rounded=0;orthogonalLoop=1;jettySize=auto;html=1;entryX=0.632;entryY=0.025;entryDx=0;entryDy=0;entryPerimeter=0;" edge="1" parent="1" source="DsWuDI-PCPcOqOPiFzHt-60" target="DsWuDI-PCPcOqOPiFzHt-57">
          <mxGeometry relative="1" as="geometry" />
        </mxCell>
        <mxCell id="DsWuDI-PCPcOqOPiFzHt-41" value="&lt;pre style=&quot;background-color: #2b2b2b ; color: #a9b7c6 ; font-family: &amp;#34;consolas&amp;#34; , monospace ; font-size: 12.0pt&quot;&gt;&lt;span style=&quot;font-family: &amp;#34;consolas&amp;#34; , monospace ; font-size: 12pt&quot;&gt;RxJava2CallAdapter&lt;/span&gt;.adapt&lt;/pre&gt;" style="rounded=0;whiteSpace=wrap;html=1;labelBackgroundColor=#ffffff;" vertex="1" parent="1">
          <mxGeometry x="326" y="890" width="360" height="60" as="geometry" />
        </mxCell>
        <mxCell id="DsWuDI-PCPcOqOPiFzHt-47" style="edgeStyle=orthogonalEdgeStyle;rounded=0;orthogonalLoop=1;jettySize=auto;html=1;entryX=1;entryY=0.5;entryDx=0;entryDy=0;" edge="1" parent="1" source="DsWuDI-PCPcOqOPiFzHt-43" target="DsWuDI-PCPcOqOPiFzHt-39">
          <mxGeometry relative="1" as="geometry">
            <mxPoint x="950" y="890" as="targetPoint" />
            <Array as="points">
              <mxPoint x="1140" y="790" />
            </Array>
          </mxGeometry>
        </mxCell>
        <mxCell id="DsWuDI-PCPcOqOPiFzHt-43" value="&lt;pre style=&quot;background-color: #2b2b2b ; color: #a9b7c6 ; font-family: &amp;#34;consolas&amp;#34; , monospace ; font-size: 12.0pt&quot;&gt;retrofit.callAdapter(returnType&lt;span style=&quot;color: #cc7832&quot;&gt;, &lt;/span&gt;annotations)&lt;/pre&gt;" style="rounded=0;whiteSpace=wrap;html=1;labelBackgroundColor=#ffffff;" vertex="1" parent="1">
          <mxGeometry x="923" y="630" width="434" height="60" as="geometry" />
        </mxCell>
        <mxCell id="DsWuDI-PCPcOqOPiFzHt-49" value="&lt;pre style=&quot;background-color: #2b2b2b ; color: #a9b7c6 ; font-family: &amp;#34;consolas&amp;#34; , monospace ; font-size: 12.0pt&quot;&gt;&lt;span style=&quot;color: #9876aa&quot;&gt;callAdapterFactories&lt;/span&gt;.get(i).get(returnType&lt;span style=&quot;color: #cc7832&quot;&gt;, &lt;/span&gt;annotations&lt;span style=&quot;color: #cc7832&quot;&gt;, this&lt;/span&gt;)&lt;/pre&gt;" style="text;html=1;align=center;verticalAlign=middle;resizable=0;points=[];autosize=1;" vertex="1" parent="1">
          <mxGeometry x="850" y="730" width="560" height="50" as="geometry" />
        </mxCell>
        <mxCell id="DsWuDI-PCPcOqOPiFzHt-51" style="edgeStyle=orthogonalEdgeStyle;rounded=0;orthogonalLoop=1;jettySize=auto;html=1;entryX=1.011;entryY=0.52;entryDx=0;entryDy=0;entryPerimeter=0;" edge="1" parent="1" source="DsWuDI-PCPcOqOPiFzHt-50" target="DsWuDI-PCPcOqOPiFzHt-49">
          <mxGeometry relative="1" as="geometry">
            <Array as="points">
              <mxPoint x="1450" y="756" />
            </Array>
          </mxGeometry>
        </mxCell>
        <mxCell id="DsWuDI-PCPcOqOPiFzHt-50" value="&lt;pre style=&quot;background-color: rgb(43 , 43 , 43) ; color: rgb(169 , 183 , 198) ; font-family: &amp;#34;consolas&amp;#34; , monospace ; font-size: 12pt&quot;&gt;RxJava2CallAdapterFactory.get&lt;/pre&gt;" style="text;html=1;align=center;verticalAlign=middle;resizable=0;points=[];autosize=1;" vertex="1" parent="1">
          <mxGeometry x="1320" y="890" width="270" height="50" as="geometry" />
        </mxCell>
        <mxCell id="DsWuDI-PCPcOqOPiFzHt-56" style="edgeStyle=orthogonalEdgeStyle;rounded=0;orthogonalLoop=1;jettySize=auto;html=1;" edge="1" parent="1" source="DsWuDI-PCPcOqOPiFzHt-55" target="DsWuDI-PCPcOqOPiFzHt-50">
          <mxGeometry relative="1" as="geometry" />
        </mxCell>
        <mxCell id="DsWuDI-PCPcOqOPiFzHt-55" value="&lt;pre style=&quot;background-color: #2b2b2b ; color: #a9b7c6 ; font-family: &amp;#34;consolas&amp;#34; , monospace ; font-size: 12.0pt&quot;&gt;RxJava2CallAdapter&lt;/pre&gt;" style="text;html=1;align=center;verticalAlign=middle;resizable=0;points=[];autosize=1;" vertex="1" parent="1">
          <mxGeometry x="1370" y="1030" width="170" height="50" as="geometry" />
        </mxCell>
        <mxCell id="DsWuDI-PCPcOqOPiFzHt-66" style="edgeStyle=orthogonalEdgeStyle;rounded=0;orthogonalLoop=1;jettySize=auto;html=1;entryX=0.5;entryY=0;entryDx=0;entryDy=0;" edge="1" parent="1" source="DsWuDI-PCPcOqOPiFzHt-57" target="DsWuDI-PCPcOqOPiFzHt-62">
          <mxGeometry relative="1" as="geometry" />
        </mxCell>
        <mxCell id="DsWuDI-PCPcOqOPiFzHt-78" style="edgeStyle=orthogonalEdgeStyle;rounded=0;orthogonalLoop=1;jettySize=auto;html=1;" edge="1" parent="1" source="DsWuDI-PCPcOqOPiFzHt-57">
          <mxGeometry relative="1" as="geometry">
            <mxPoint x="1270" y="1209" as="targetPoint" />
          </mxGeometry>
        </mxCell>
        <mxCell id="DsWuDI-PCPcOqOPiFzHt-57" value="&lt;pre style=&quot;background-color: #2b2b2b ; color: #a9b7c6 ; font-family: &amp;#34;consolas&amp;#34; , monospace ; font-size: 12.0pt&quot;&gt;Observable&amp;lt;Response&amp;lt;&lt;span style=&quot;color: #507874&quot;&gt;R&lt;/span&gt;&amp;gt;&amp;gt; responseObservable = &lt;span style=&quot;color: #9876aa&quot;&gt;isAsync&lt;br&gt;&lt;/span&gt;&lt;span style=&quot;color: #9876aa&quot;&gt;    &lt;/span&gt;? &lt;span style=&quot;color: #cc7832&quot;&gt;new &lt;/span&gt;CallEnqueueObservable&amp;lt;&amp;gt;(call)&lt;br&gt;    : &lt;span style=&quot;color: #cc7832&quot;&gt;new &lt;/span&gt;CallExecuteObservable&amp;lt;&amp;gt;(call)&lt;span style=&quot;color: #cc7832&quot;&gt;;&lt;/span&gt;&lt;/pre&gt;" style="text;html=1;align=center;verticalAlign=middle;resizable=0;points=[];autosize=1;" vertex="1" parent="1">
          <mxGeometry x="530" y="1169" width="470" height="80" as="geometry" />
        </mxCell>
        <mxCell id="DsWuDI-PCPcOqOPiFzHt-60" value="发生订阅，和执行" style="text;html=1;align=center;verticalAlign=middle;resizable=0;points=[];autosize=1;" vertex="1" parent="1">
          <mxGeometry x="600" y="1045" width="110" height="20" as="geometry" />
        </mxCell>
        <mxCell id="DsWuDI-PCPcOqOPiFzHt-61" style="edgeStyle=orthogonalEdgeStyle;rounded=0;orthogonalLoop=1;jettySize=auto;html=1;entryX=0.632;entryY=0.025;entryDx=0;entryDy=0;entryPerimeter=0;" edge="1" parent="1" source="DsWuDI-PCPcOqOPiFzHt-41" target="DsWuDI-PCPcOqOPiFzHt-60">
          <mxGeometry relative="1" as="geometry">
            <mxPoint x="506" y="950" as="sourcePoint" />
            <mxPoint x="827.04" y="1171" as="targetPoint" />
          </mxGeometry>
        </mxCell>
        <mxCell id="DsWuDI-PCPcOqOPiFzHt-65" style="edgeStyle=orthogonalEdgeStyle;rounded=0;orthogonalLoop=1;jettySize=auto;html=1;entryX=0.5;entryY=0;entryDx=0;entryDy=0;" edge="1" parent="1" source="DsWuDI-PCPcOqOPiFzHt-62" target="DsWuDI-PCPcOqOPiFzHt-64">
          <mxGeometry relative="1" as="geometry" />
        </mxCell>
        <mxCell id="DsWuDI-PCPcOqOPiFzHt-62" value="&lt;pre style=&quot;background-color: #2b2b2b ; color: #a9b7c6 ; font-family: &amp;#34;consolas&amp;#34; , monospace ; font-size: 12.0pt&quot;&gt;&lt;span style=&quot;color: #ffc66d&quot;&gt;subscribeActual&lt;/span&gt;&lt;/pre&gt;" style="whiteSpace=wrap;html=1;labelBackgroundColor=#ffffff;" vertex="1" parent="1">
          <mxGeometry x="760" y="1300" width="120" height="60" as="geometry" />
        </mxCell>
        <mxCell id="DsWuDI-PCPcOqOPiFzHt-69" style="edgeStyle=orthogonalEdgeStyle;rounded=0;orthogonalLoop=1;jettySize=auto;html=1;entryX=0.5;entryY=0;entryDx=0;entryDy=0;" edge="1" parent="1" source="DsWuDI-PCPcOqOPiFzHt-64" target="DsWuDI-PCPcOqOPiFzHt-68">
          <mxGeometry relative="1" as="geometry" />
        </mxCell>
        <mxCell id="DsWuDI-PCPcOqOPiFzHt-64" value="&lt;pre style=&quot;background-color: #2b2b2b ; color: #a9b7c6 ; font-family: &amp;#34;consolas&amp;#34; , monospace ; font-size: 12.0pt&quot;&gt;call.execute()&lt;/pre&gt;" style="rounded=0;whiteSpace=wrap;html=1;labelBackgroundColor=#ffffff;" vertex="1" parent="1">
          <mxGeometry x="760" y="1450" width="120" height="60" as="geometry" />
        </mxCell>
        <mxCell id="DsWuDI-PCPcOqOPiFzHt-67" value="OkHttpCall" style="shape=note;whiteSpace=wrap;html=1;backgroundOutline=1;darkOpacity=0.05;labelBackgroundColor=#ffffff;" vertex="1" parent="1">
          <mxGeometry x="970" y="1440" width="80" height="100" as="geometry" />
        </mxCell>
        <mxCell id="DsWuDI-PCPcOqOPiFzHt-77" style="edgeStyle=orthogonalEdgeStyle;rounded=0;orthogonalLoop=1;jettySize=auto;html=1;entryX=0.5;entryY=0;entryDx=0;entryDy=0;" edge="1" parent="1" source="DsWuDI-PCPcOqOPiFzHt-68" target="DsWuDI-PCPcOqOPiFzHt-72">
          <mxGeometry relative="1" as="geometry" />
        </mxCell>
        <mxCell id="DsWuDI-PCPcOqOPiFzHt-68" value="&lt;pre style=&quot;background-color: #2b2b2b ; color: #a9b7c6 ; font-family: &amp;#34;consolas&amp;#34; , monospace ; font-size: 12.0pt&quot;&gt;&lt;pre style=&quot;font-family: &amp;#34;consolas&amp;#34; , monospace ; font-size: 12pt&quot;&gt;&lt;span style=&quot;color: #ffc66d&quot;&gt;createRawCall&lt;/span&gt;&lt;/pre&gt;&lt;/pre&gt;" style="rounded=0;whiteSpace=wrap;html=1;labelBackgroundColor=#ffffff;" vertex="1" parent="1">
          <mxGeometry x="760" y="1620" width="120" height="60" as="geometry" />
        </mxCell>
        <mxCell id="DsWuDI-PCPcOqOPiFzHt-70" value="OKHttp原生的Call" style="shape=note;whiteSpace=wrap;html=1;backgroundOutline=1;darkOpacity=0.05;labelBackgroundColor=#ffffff;" vertex="1" parent="1">
          <mxGeometry x="970" y="1580" width="80" height="100" as="geometry" />
        </mxCell>
        <mxCell id="DsWuDI-PCPcOqOPiFzHt-76" style="edgeStyle=orthogonalEdgeStyle;rounded=0;orthogonalLoop=1;jettySize=auto;html=1;entryX=0.5;entryY=0;entryDx=0;entryDy=0;" edge="1" parent="1" source="DsWuDI-PCPcOqOPiFzHt-72" target="DsWuDI-PCPcOqOPiFzHt-73">
          <mxGeometry relative="1" as="geometry" />
        </mxCell>
        <mxCell id="DsWuDI-PCPcOqOPiFzHt-72" value="&lt;pre style=&quot;background-color: #2b2b2b ; color: #a9b7c6 ; font-family: &amp;#34;consolas&amp;#34; , monospace ; font-size: 12.0pt&quot;&gt;&lt;pre style=&quot;font-family: &amp;#34;consolas&amp;#34; , monospace ; font-size: 12pt&quot;&gt;&lt;pre style=&quot;font-family: &amp;#34;consolas&amp;#34; , monospace ; font-size: 12pt&quot;&gt;parseResponse(call.execute())&lt;/pre&gt;&lt;/pre&gt;&lt;/pre&gt;" style="rounded=0;whiteSpace=wrap;html=1;labelBackgroundColor=#ffffff;" vertex="1" parent="1">
          <mxGeometry x="760" y="1740" width="120" height="60" as="geometry" />
        </mxCell>
        <mxCell id="DsWuDI-PCPcOqOPiFzHt-75" style="edgeStyle=orthogonalEdgeStyle;rounded=0;orthogonalLoop=1;jettySize=auto;html=1;entryX=0.5;entryY=0;entryDx=0;entryDy=0;" edge="1" parent="1" source="DsWuDI-PCPcOqOPiFzHt-73" target="DsWuDI-PCPcOqOPiFzHt-74">
          <mxGeometry relative="1" as="geometry" />
        </mxCell>
        <mxCell id="DsWuDI-PCPcOqOPiFzHt-73" value="&lt;pre style=&quot;background-color: #2b2b2b ; color: #a9b7c6 ; font-family: &amp;#34;consolas&amp;#34; , monospace ; font-size: 12.0pt&quot;&gt;&lt;pre style=&quot;font-family: &amp;#34;consolas&amp;#34; , monospace ; font-size: 12pt&quot;&gt;&lt;pre style=&quot;font-family: &amp;#34;consolas&amp;#34; , monospace ; font-size: 12pt&quot;&gt;&lt;pre style=&quot;font-family: &amp;#34;consolas&amp;#34; , monospace ; font-size: 12pt&quot;&gt;&lt;span style=&quot;color: #9876aa&quot;&gt;responseConverter&lt;/span&gt;.convert(catchingBody)&lt;span style=&quot;color: #cc7832&quot;&gt;;&lt;/span&gt;&lt;/pre&gt;&lt;/pre&gt;&lt;/pre&gt;&lt;/pre&gt;" style="rounded=0;whiteSpace=wrap;html=1;labelBackgroundColor=#ffffff;" vertex="1" parent="1">
          <mxGeometry x="760" y="1870" width="120" height="60" as="geometry" />
        </mxCell>
        <mxCell id="DsWuDI-PCPcOqOPiFzHt-74" value="&lt;pre style=&quot;background-color: #2b2b2b ; color: #a9b7c6 ; font-family: &amp;#34;consolas&amp;#34; , monospace ; font-size: 12.0pt&quot;&gt;&lt;pre style=&quot;font-family: &amp;#34;consolas&amp;#34; , monospace ; font-size: 12pt&quot;&gt;&lt;pre style=&quot;font-family: &amp;#34;consolas&amp;#34; , monospace ; font-size: 12pt&quot;&gt;&lt;pre style=&quot;font-family: &amp;#34;consolas&amp;#34; , monospace ; font-size: 12pt&quot;&gt;&lt;pre style=&quot;font-family: &amp;#34;consolas&amp;#34; , monospace ; font-size: 12pt&quot;&gt;Response.&lt;span style=&quot;font-style: italic&quot;&gt;success&lt;/span&gt;(body&lt;span style=&quot;color: #cc7832&quot;&gt;, &lt;/span&gt;rawResponse)&lt;/pre&gt;&lt;/pre&gt;&lt;/pre&gt;&lt;/pre&gt;&lt;/pre&gt;" style="rounded=0;whiteSpace=wrap;html=1;labelBackgroundColor=#ffffff;" vertex="1" parent="1">
          <mxGeometry x="760" y="2020" width="120" height="60" as="geometry" />
        </mxCell>
        <mxCell id="DsWuDI-PCPcOqOPiFzHt-80" value="&lt;pre style=&quot;background-color: #2b2b2b ; color: #a9b7c6 ; font-family: &amp;#34;consolas&amp;#34; , monospace ; font-size: 12.0pt&quot;&gt;&lt;pre style=&quot;font-family: &amp;#34;consolas&amp;#34; , monospace ; font-size: 12pt&quot;&gt; observable.subscribeOn(&lt;span style=&quot;color: #9876aa&quot;&gt;scheduler&lt;/span&gt;)&lt;/pre&gt;&lt;/pre&gt;" style="whiteSpace=wrap;html=1;labelBackgroundColor=#ffffff;" vertex="1" parent="1">
          <mxGeometry x="1370" y="1179" width="120" height="60" as="geometry" />
        </mxCell>
      </root>
    </mxGraphModel>
  </diagram>
</mxfile>
